<svg width="184" height="160" viewBox="0 0 184 160" fill="none" xmlns="http://www.w3.org/2000/svg">
<path d="M96.1818 57.4545H97.1818V56.4545H96.1818V57.4545ZM96.1818 104V105H97.1818V104H96.1818ZM90.5455 104H89.5455V105H90.5455V104ZM90.5455 63.3636H91.5455V62.3636H90.5455V63.3636ZM90.2727 63.3636V62.3636H89.971L89.7196 62.5306L90.2727 63.3636ZM78.9091 70.9091H77.9091V72.7735L79.4623 71.7422L78.9091 70.9091ZM78.9091 65.1818L78.3559 64.3488L77.9091 64.6455V65.1818H78.9091ZM90.5455 57.4545V56.4545H90.2437L89.9923 56.6215L90.5455 57.4545ZM95.1818 57.4545V104H97.1818V57.4545H95.1818ZM96.1818 103H90.5455V105H96.1818V103ZM91.5455 104V63.3636H89.5455V104H91.5455ZM90.5455 62.3636H90.2727V64.3636H90.5455V62.3636ZM89.7196 62.5306L78.3559 70.076L79.4623 71.7422L90.8259 64.1967L89.7196 62.5306ZM79.9091 70.9091V65.1818H77.9091V70.9091H79.9091ZM79.4623 66.0149L91.0987 58.2876L89.9923 56.6215L78.3559 64.3488L79.4623 66.0149ZM90.5455 58.4545H96.1818V56.4545H90.5455V58.4545Z" fill="#2F2F2F"/>
<path d="M13.2578 119.5L92 0.903945L170.742 119.5H13.2578Z" stroke="#989898"/>
</svg>
