<svg width="103" height="128" viewBox="0 0 103 128" fill="none" xmlns="http://www.w3.org/2000/svg">
<path d="M102.5 64C102.5 99.177 79.5705 127.5 51.5 127.5C23.4294 127.5 0.5 99.177 0.5 64C0.5 28.823 23.4294 0.5 51.5 0.5C79.5705 0.5 102.5 28.823 102.5 64Z" stroke="#989898"/>
<path d="M44.1591 92.0455L43.7144 92.9411L44.1591 92.0455ZM39.0227 87.6818L39.8432 87.1102L39.0227 87.6818ZM36.9091 81.3636V80.3636H35.8565L35.9104 81.4149L36.9091 81.3636ZM42.3636 81.3636L43.3586 81.2634L43.268 80.3636H42.3636V81.3636ZM45.2273 86.5909L44.5967 87.3671L44.6043 87.3731L45.2273 86.5909ZM56.4545 87.2955L55.9426 86.4364L55.9388 86.4387L56.4545 87.2955ZM59.9773 83.6136L59.1003 83.133L59.0987 83.136L59.9773 83.6136ZM59.9318 72.8409L59.0545 73.3209L59.06 73.3308L59.9318 72.8409ZM51 67.6364L50.9894 68.6363L50.9924 68.6363L51 67.6364ZM46.6136 68.2955L46.8948 69.2552L46.9036 69.2525L46.6136 68.2955ZM42.9091 70L42.7893 70.9928L43.1762 71.0395L43.4927 70.812L42.9091 70ZM37.6364 69.3636L36.6438 69.2415L36.5215 70.2363L37.5165 70.3564L37.6364 69.3636ZM40.4545 46.4545V45.4545H39.57L39.462 46.3324L40.4545 46.4545ZM64.6364 46.4545H65.6364V45.4545H64.6364V46.4545ZM64.6364 51.4545V52.4545H65.6364V51.4545H64.6364ZM45.1818 51.4545V50.4545H44.2939L44.1888 51.3362L45.1818 51.4545ZM43.5455 65.1818L42.5525 65.0634L42.4192 66.1818H43.5455V65.1818ZM43.8182 65.1818V66.1818H44.1668L44.4398 65.9651L43.8182 65.1818ZM59.5227 64.5909L59.0006 65.4438L59.0074 65.4479L59.5227 64.5909ZM64.7955 70.1364L63.9163 70.6128L63.9186 70.6172L64.7955 70.1364ZM64.7273 86.1364L63.859 85.6402L63.858 85.6421L64.7273 86.1364ZM59.2727 91.6364L59.7713 92.5032L59.7755 92.5008L59.2727 91.6364ZM51.3636 92.6364C48.8329 92.6364 46.5863 92.134 44.6038 91.1498L43.7144 92.9411C46.0046 94.0781 48.5611 94.6364 51.3636 94.6364V92.6364ZM44.6038 91.1498C42.6088 90.1593 41.0294 88.8126 39.8432 87.1102L38.2022 88.2535C39.5918 90.248 41.4367 91.8104 43.7144 92.9411L44.6038 91.1498ZM39.8432 87.1102C38.6677 85.423 38.0199 83.4992 37.9078 81.3124L35.9104 81.4149C36.0407 83.9553 36.8019 86.2437 38.2022 88.2535L39.8432 87.1102ZM36.9091 82.3636H42.3636V80.3636H36.9091V82.3636ZM41.3687 81.4638C41.6084 83.8443 42.7008 85.8266 44.5967 87.367L45.8579 85.8148C44.3598 84.5977 43.5431 83.0951 43.3586 81.2634L41.3687 81.4638ZM44.6043 87.3731C46.5092 88.8903 48.7795 89.6364 51.3636 89.6364V87.6364C49.1902 87.6364 47.3696 87.0188 45.8503 85.8087L44.6043 87.3731ZM51.3636 89.6364C53.4355 89.6364 55.3142 89.1492 56.9703 88.1522L55.9388 86.4387C54.6251 87.2296 53.11 87.6364 51.3636 87.6364V89.6364ZM56.9665 88.1545C58.6235 87.167 59.9231 85.8068 60.8558 84.0913L59.0987 83.136C58.3344 84.5417 57.2856 85.6361 55.9426 86.4364L56.9665 88.1545ZM60.8542 84.0943C61.8068 82.3562 62.2727 80.4076 62.2727 78.2727H60.2727C60.2727 80.1075 59.875 81.7196 59.1003 83.133L60.8542 84.0943ZM62.2727 78.2727C62.2727 76.0906 61.7908 74.1078 60.8036 72.351L59.06 73.3308C59.8607 74.7558 60.2727 76.3943 60.2727 78.2727H62.2727ZM60.8091 72.3609C59.8463 70.6013 58.5097 69.2045 56.8087 68.1872L55.7822 69.9037C57.1721 70.7349 58.2598 71.8684 59.0546 73.3209L60.8091 72.3609ZM56.8087 68.1872C55.095 67.1624 53.1519 66.6528 51.0076 66.6364L50.9924 68.6363C52.8178 68.6503 54.405 69.08 55.7822 69.9037L56.8087 68.1872ZM51.0106 66.6364C49.4749 66.6201 47.9114 66.8573 46.3236 67.3384L46.9036 69.2525C48.3159 68.8245 49.6766 68.6223 50.9894 68.6363L51.0106 66.6364ZM46.3325 67.3358C44.7557 67.7977 43.4103 68.4082 42.3255 69.188L43.4927 70.812C44.3472 70.1978 45.4716 69.672 46.8948 69.2551L46.3325 67.3358ZM43.0289 69.0072L37.7562 68.3708L37.5165 70.3564L42.7893 70.9928L43.0289 69.0072ZM38.6289 69.4857L41.4471 46.5766L39.462 46.3324L36.6438 69.2415L38.6289 69.4857ZM40.4545 47.4545H64.6364V45.4545H40.4545V47.4545ZM63.6364 46.4545V51.4545H65.6364V46.4545H63.6364ZM64.6364 50.4545H45.1818V52.4545H64.6364V50.4545ZM44.1888 51.3362L42.5525 65.0634L44.5384 65.3002L46.1748 51.5729L44.1888 51.3362ZM43.5455 66.1818H43.8182V64.1818H43.5455V66.1818ZM44.4398 65.9651C45.2874 65.2924 46.3786 64.712 47.7372 64.2401L47.081 62.3508C45.5608 62.8789 44.258 63.556 43.1965 64.3985L44.4398 65.9651ZM47.7372 64.2401C49.0685 63.7776 50.4574 63.5455 51.9091 63.5455V61.5455C50.2395 61.5455 48.6284 61.8133 47.081 62.3508L47.7372 64.2401ZM51.9091 63.5455C54.5906 63.5455 56.9446 64.185 59.0006 65.4438L60.0449 63.7381C57.6463 62.2695 54.9246 61.5455 51.9091 61.5455V63.5455ZM59.0074 65.4479C61.0934 66.7023 62.7268 68.418 63.9163 70.6128L65.6746 69.6599C64.3187 67.1578 62.4369 65.1765 60.0381 63.7339L59.0074 65.4479ZM63.9186 70.6172C65.116 72.8006 65.7273 75.3133 65.7273 78.1818H67.7273C67.7273 75.0201 67.0507 72.1691 65.6723 69.6555L63.9186 70.6172ZM65.7273 78.1818C65.7273 80.9962 65.0972 83.4735 63.859 85.6402L65.5955 86.6325C67.024 84.1326 67.7273 81.3068 67.7273 78.1818H65.7273ZM63.858 85.6421C62.6276 87.8058 60.9363 89.5118 58.7699 90.772L59.7755 92.5008C62.2455 91.064 64.1905 89.1033 65.5966 86.6307L63.858 85.6421ZM58.7742 90.7695C56.6232 92.0067 54.162 92.6364 51.3636 92.6364V94.6364C54.4744 94.6364 57.2859 93.9327 59.7713 92.5032L58.7742 90.7695Z" fill="#2F2F2F"/>
</svg>
