<svg width="237" height="112" viewBox="0 0 237 112" fill="none" xmlns="http://www.w3.org/2000/svg">
<rect x="0.5" y="0.5" width="202" height="98" stroke="#989898"/>
<rect x="34.5" y="13.5" width="202" height="98" stroke="#989898"/>
<path d="M118.273 81.6364L118.257 82.6363L118.263 82.6363L118.273 81.6364ZM112.545 80.5455L112.203 81.4848L112.545 80.5455ZM107.318 77.0227L106.592 77.7097L106.595 77.713L107.318 77.0227ZM103.523 70.2727L102.575 70.5905L102.575 70.592L103.523 70.2727ZM103.25 48.5909L104.222 48.8269L104.222 48.8258L103.25 48.5909ZM106.614 40.5227L107.443 41.0814L107.445 41.0787L106.614 40.5227ZM111.932 35.5227L111.454 34.6441L111.452 34.6456L111.932 35.5227ZM125.955 35.3864L125.497 36.2755L125.505 36.2795L125.955 35.3864ZM130.955 39.7045L131.775 39.1329H131.775L130.955 39.7045ZM133.455 46.0909V47.0909H134.624L134.442 45.9356L133.455 46.0909ZM127.909 46.0909L126.938 46.3301L127.126 47.0909H127.909V46.0909ZM124.909 40.8864L124.229 41.6192L124.909 40.8864ZM110.477 43.5227L109.643 42.9708L109.642 42.9736L110.477 43.5227ZM107.364 56.7273L106.364 56.7246L106.361 57.7273H107.364V56.7273ZM107.727 56.7273V57.7273H108.266L108.562 57.2774L107.727 56.7273ZM110.75 53.4318L111.365 54.2206L111.366 54.2195L110.75 53.4318ZM114.659 51.2955L114.328 50.3519L114.659 51.2955ZM126.5 52.5455L125.984 53.4019L125.988 53.4045L126.5 52.5455ZM131.818 58.0227L130.95 58.5189L130.951 58.5213L131.818 58.0227ZM131.886 73.9091L132.766 74.3852L132.767 74.3829L131.886 73.9091ZM126.455 79.5909L126.97 80.4479L126.971 80.4469L126.455 79.5909ZM123.409 75.2045L122.88 74.3561L122.876 74.3585L123.409 75.2045ZM127.023 71.3636L126.149 70.8773L126.145 70.8836L127.023 71.3636ZM127.068 60.75L126.186 61.2206L126.191 61.2306L127.068 60.75ZM123.545 56.9545L123.011 57.7996L123.015 57.8021L123.545 56.9545ZM114.432 56.4091L114.843 57.3206L114.852 57.3164L114.432 56.4091ZM111.159 58.7273L110.435 58.037L110.43 58.043L111.159 58.7273ZM108.977 62.1136L109.899 62.5022L109.9 62.4983L108.977 62.1136ZM109.477 71.2727L108.597 71.7463L108.6 71.7527L109.477 71.2727ZM113.068 75.1591L112.523 75.9975L112.527 76L113.068 75.1591ZM118.289 80.6365C116.498 80.6081 114.699 80.2673 112.888 79.6061L112.203 81.4848C114.21 82.2176 116.229 82.604 118.257 82.6362L118.289 80.6365ZM112.888 79.6061C111.141 78.968 109.525 77.8866 108.042 76.3324L106.595 77.713C108.263 79.4619 110.132 80.729 112.203 81.4848L112.888 79.6061ZM108.045 76.3357C106.594 74.801 105.392 72.6896 104.47 69.9535L102.575 70.592C103.562 73.5226 104.891 75.9111 106.592 77.7097L108.045 76.3357ZM104.471 69.955C103.562 67.2427 103.091 63.7831 103.091 59.5455H101.091C101.091 63.9139 101.574 67.6057 102.575 70.5905L104.471 69.955ZM103.091 59.5455C103.091 55.4843 103.472 51.9146 104.222 48.8269L102.278 48.3549C101.483 51.6309 101.091 55.3642 101.091 59.5455H103.091ZM104.222 48.8258C104.974 45.7166 106.054 43.1434 107.443 41.0814L105.784 39.964C104.234 42.2656 103.072 45.0712 102.278 48.356L104.222 48.8258ZM107.445 41.0787C108.836 38.9996 110.493 37.4503 112.412 36.3999L111.452 34.6456C109.219 35.8679 107.331 37.6519 105.782 39.9667L107.445 41.0787ZM112.409 36.4013C114.339 35.3525 116.528 34.8182 119 34.8182V32.8182C116.229 32.8182 113.706 33.4202 111.454 34.6441L112.409 36.4013ZM119 34.8182C121.469 34.8182 123.627 35.3126 125.497 36.2754L126.412 34.4973C124.222 33.3692 121.743 32.8182 119 32.8182V34.8182ZM125.505 36.2795C127.404 37.2364 128.943 38.5663 130.134 40.2762L131.775 39.1329C130.391 37.1458 128.596 35.597 126.404 34.4933L125.505 36.2795ZM130.134 40.2762C131.328 41.9903 132.109 43.9742 132.467 46.2462L134.442 45.9356C134.042 43.3894 133.157 41.1157 131.775 39.1329L130.134 40.2762ZM133.455 45.0909H127.909V47.0909H133.455V45.0909ZM128.88 45.8517C128.321 43.5839 127.226 41.6735 125.59 40.1536L124.229 41.6192C125.561 42.8568 126.467 44.4161 126.938 46.3301L128.88 45.8517ZM125.59 40.1536C123.882 38.5682 121.651 37.8182 119 37.8182V39.8182C121.258 39.8182 122.966 40.4469 124.229 41.6192L125.59 40.1536ZM119 37.8182C115.041 37.8182 111.895 39.5691 109.643 42.9708L111.311 44.0746C113.211 41.2037 115.746 39.8182 119 39.8182V37.8182ZM109.642 42.9736C107.433 46.3354 106.379 50.9562 106.364 56.7246L108.364 56.7299C108.379 51.165 109.401 46.9828 111.313 44.0718L109.642 42.9736ZM107.364 57.7273H107.727V55.7273H107.364V57.7273ZM108.562 57.2774C109.353 56.0767 110.288 55.0599 111.365 54.2206L110.135 52.643C108.879 53.6219 107.798 54.8021 106.892 56.1771L108.562 57.2774ZM111.366 54.2195C112.462 53.3628 113.668 52.7031 114.99 52.239L114.328 50.3519C112.801 50.8878 111.402 51.6523 110.134 52.6441L111.366 54.2195ZM114.99 52.239C116.302 51.7783 117.698 51.5455 119.182 51.5455V49.5455C117.484 49.5455 115.864 49.8126 114.328 50.3519L114.99 52.239ZM119.182 51.5455C121.673 51.5455 123.933 52.1656 125.984 53.4019L127.016 51.689C124.643 50.2586 122.024 49.5455 119.182 49.5455V51.5455ZM125.988 53.4045C128.046 54.6305 129.698 56.3284 130.95 58.5189L132.686 57.5266C131.271 55.0504 129.379 53.0967 127.012 51.6864L125.988 53.4045ZM130.951 58.5213C132.187 60.67 132.818 63.1532 132.818 66H134.818C134.818 62.8468 134.116 60.0118 132.685 57.5241L130.951 58.5213ZM132.818 66C132.818 68.7235 132.211 71.1956 131.006 73.4353L132.767 74.3829C134.138 71.8347 134.818 69.0341 134.818 66H132.818ZM131.007 73.433C129.805 75.6539 128.12 77.4171 125.938 78.7349L126.971 80.4469C129.456 78.9465 131.392 76.9219 132.766 74.3852L131.007 73.433ZM125.939 78.7339C123.803 80.0182 121.264 80.6652 118.282 80.6364L118.263 82.6363C121.554 82.6681 124.469 81.9515 126.97 80.4479L125.939 78.7339ZM118.273 77.6364C120.357 77.6364 122.257 77.1125 123.942 76.0506L122.876 74.3585C121.531 75.2057 120.006 75.6364 118.273 75.6364V77.6364ZM123.938 76.053C125.617 75.0061 126.94 73.598 127.9 71.8436L126.145 70.8836C125.348 72.3414 124.262 73.4939 122.88 74.3561L123.938 76.053ZM127.896 71.85C128.879 70.0846 129.364 68.1273 129.364 66H127.364C127.364 67.8121 126.954 69.4306 126.149 70.8773L127.896 71.85ZM129.364 66C129.364 63.92 128.895 62.0029 127.945 60.2694L126.191 61.2306C126.968 62.6487 127.364 64.2315 127.364 66H129.364ZM127.951 60.2794C127.021 58.5373 125.727 57.141 124.076 56.107L123.015 57.8021C124.364 58.6469 125.418 59.7809 126.186 61.2206L127.951 60.2794ZM124.08 56.1095C122.421 55.0601 120.536 54.5455 118.455 54.5455V56.5455C120.191 56.5455 121.7 56.9702 123.011 57.7996L124.08 56.1095ZM118.455 54.5455C116.878 54.5455 115.392 54.8618 114.011 55.5018L114.852 57.3164C115.956 56.8048 117.153 56.5455 118.455 56.5455V54.5455ZM114.021 55.4976C112.661 56.1111 111.464 56.9589 110.435 58.0371L111.883 59.4175C112.733 58.526 113.718 57.8283 114.843 57.3206L114.021 55.4976ZM110.43 58.043C109.422 59.1171 108.63 60.3479 108.054 61.729L109.9 62.4983C110.386 61.3339 111.048 60.3071 111.888 59.4116L110.43 58.043ZM108.056 61.7251C107.473 63.1083 107.182 64.5664 107.182 66.0909H109.182C109.182 64.8275 109.421 63.6341 109.899 62.5022L108.056 61.7251ZM107.182 66.0909C107.182 68.1023 107.654 69.9926 108.597 71.7463L110.358 70.7991C109.574 69.3407 109.182 67.7765 109.182 66.0909H107.182ZM108.6 71.7527C109.557 73.5019 110.867 74.9213 112.523 75.9975L113.613 74.3206C112.239 73.4272 111.155 72.2556 110.355 70.7927L108.6 71.7527ZM112.527 76C114.229 77.0956 116.155 77.6364 118.273 77.6364V75.6364C116.512 75.6364 114.968 75.1922 113.609 74.3182L112.527 76Z" fill="#2F2F2F"/>
</svg>
