<svg width="236" height="120" viewBox="0 0 236 120" fill="none" xmlns="http://www.w3.org/2000/svg">
<rect x="0.5" y="0.5" width="235" height="119" stroke="#989898"/>
<path d="M98.7273 73.4545H97.7273V74.4545H98.7273V73.4545ZM98.7273 68.8182L97.882 68.2839L97.7273 68.5287V68.8182H98.7273ZM119.182 36.4545V35.4545H118.631L118.336 35.9203L119.182 36.4545ZM122.545 36.4545H123.545V35.4545H122.545V36.4545ZM122.545 43.6364V44.6364H123.545V43.6364H122.545ZM120.273 43.6364V42.6364H119.722L119.427 43.1021L120.273 43.6364ZM104.818 68.0909L103.973 67.5567L103.818 67.8014V68.0909H104.818ZM104.818 68.4545H103.818V69.4545H104.818V68.4545ZM132.364 68.4545H133.364V67.4545H132.364V68.4545ZM132.364 73.4545V74.4545H133.364V73.4545H132.364ZM120.636 83H119.636V84H120.636V83ZM120.636 36.4545V35.4545H119.636V36.4545H120.636ZM126 36.4545H127V35.4545H126V36.4545ZM126 83V84H127V83H126ZM99.7273 73.4545V68.8182H97.7273V73.4545H99.7273ZM99.5726 69.3524L120.027 36.9888L118.336 35.9203L97.882 68.2839L99.5726 69.3524ZM119.182 37.4545H122.545V35.4545H119.182V37.4545ZM121.545 36.4545V43.6364H123.545V36.4545H121.545ZM122.545 42.6364H120.273V44.6364H122.545V42.6364ZM119.427 43.1021L103.973 67.5567L105.664 68.6251L121.118 44.1706L119.427 43.1021ZM103.818 68.0909V68.4545H105.818V68.0909H103.818ZM104.818 69.4545H132.364V67.4545H104.818V69.4545ZM131.364 68.4545V73.4545H133.364V68.4545H131.364ZM132.364 72.4545H98.7273V74.4545H132.364V72.4545ZM121.636 83V72.0455H119.636V83H121.636ZM121.636 72.0455V69.8864H119.636V72.0455H121.636ZM121.636 69.8864V36.4545H119.636V69.8864H121.636ZM120.636 37.4545H126V35.4545H120.636V37.4545ZM125 36.4545V83H127V36.4545H125ZM126 82H120.636V84H126V82Z" fill="#2F2F2F"/>
</svg>
