<svg width="125" height="99" viewBox="0 0 125 99" fill="none" xmlns="http://www.w3.org/2000/svg">
<circle cx="84" cy="41" r="40.5" stroke="#989898"/>
<line x1="50.2867" y1="63.4096" x2="0.28673" y2="98.4096" stroke="#989898"/>
<path d="M71.2727 68L70.3803 67.5489L69.6467 69H71.2727V68ZM92.0909 26.8182L92.9834 27.2693L93.0909 27.0566V26.8182H92.0909ZM92.0909 26.4545H93.0909V25.4545H92.0909V26.4545ZM68.0909 26.4545H67.0909V27.4545H68.0909V26.4545ZM68.0909 21.4545V20.4545H67.0909V21.4545H68.0909ZM97.9091 21.4545H98.9091V20.4545H97.9091V21.4545ZM97.9091 26.7273L98.8027 27.1761L98.9091 26.9643V26.7273H97.9091ZM77.1818 68V69H77.7986L78.0755 68.4488L77.1818 68ZM72.1652 68.4511L92.9834 27.2693L91.1985 26.367L70.3803 67.5489L72.1652 68.4511ZM93.0909 26.8182V26.4545H91.0909V26.8182H93.0909ZM92.0909 25.4545H68.0909V27.4545H92.0909V25.4545ZM69.0909 26.4545V21.4545H67.0909V26.4545H69.0909ZM68.0909 22.4545H97.9091V20.4545H68.0909V22.4545ZM96.9091 21.4545V26.7273H98.9091V21.4545H96.9091ZM97.0155 26.2785L76.2882 67.5512L78.0755 68.4488L98.8027 27.1761L97.0155 26.2785ZM77.1818 67H71.2727V69H77.1818V67Z" fill="#2F2F2F"/>
</svg>
