<svg width="128" height="128" viewBox="0 0 128 128" fill="none" xmlns="http://www.w3.org/2000/svg">
<circle cx="64" cy="64" r="63.5" stroke="#989898"/>
<path d="M57.5227 86.0909L57.1188 87.0057L57.121 87.0067L57.5227 86.0909ZM51.9545 81.7955L51.1498 82.3891L51.1553 82.3965L51.9545 81.7955ZM49.7273 75.3636V74.3636H48.6763L48.7285 75.4133L49.7273 75.3636ZM55.4545 75.3636L56.4513 75.2831L56.377 74.3636H55.4545V75.3636ZM57 79.25L56.2318 79.8902L56.2362 79.8955L57 79.25ZM60.5682 81.75L60.1951 82.6778L60.5682 81.75ZM74.4091 78.6818L73.5927 78.1044L74.4091 78.6818ZM74.4545 69.8409L73.6137 70.3822L73.6165 70.3866L74.4545 69.8409ZM70.7273 66.75L70.3141 67.6607L70.7273 66.75ZM61 65.6364H60V66.6364H61V65.6364ZM61 60.6364V59.6364H60V60.6364H61ZM69.5909 59.6364L69.1632 58.7324L69.1595 58.7342L69.5909 59.6364ZM72.8864 56.8182L72.0527 56.2659L72.0479 56.2732L72.8864 56.8182ZM73.0455 48.4318L73.9039 47.919L73.0455 48.4318ZM70.0909 45.7045L69.6309 46.5925L69.6352 46.5947L70.0909 45.7045ZM61.0909 45.6136L61.4692 46.5394L61.4741 46.5373L61.0909 45.6136ZM57.6364 48.1364L58.4099 48.7702L58.4141 48.7649L57.6364 48.1364ZM56.1818 52.0909V53.0909H57.134L57.1806 52.1399L56.1818 52.0909ZM50.7273 52.0909L49.728 52.0537L49.6893 53.0909H50.7273V52.0909ZM52.9318 45.6818L53.731 46.2829L53.7334 46.2797L52.9318 45.6818ZM58.3409 41.3636L57.9234 40.455L57.9211 40.456L58.3409 41.3636ZM73.1364 41.5682L72.6437 42.4384L72.6485 42.4411L73.1364 41.5682ZM77.8864 46.1364L77.0228 46.6407V46.6407L77.8864 46.1364ZM77.4773 58.9773L76.6757 58.3794L76.6725 58.3836L77.4773 58.9773ZM71.9091 62.8182L71.6189 61.8612L70.9091 62.0764V62.8182H71.9091ZM71.9091 63.1818H70.9091V64.0304L71.7463 64.1685L71.9091 63.1818ZM78.7955 66.9318L78.022 67.5657L78.0244 67.5686L78.7955 66.9318ZM79.2045 81.1818L78.3792 80.6171L78.3783 80.6185L79.2045 81.1818ZM73.6136 85.9091L74.0516 86.8081L73.6136 85.9091ZM65.5455 86.6364C62.6605 86.6364 60.1266 86.1413 57.9245 85.1752L57.121 87.0067C59.6158 88.1012 62.4304 88.6364 65.5455 88.6364V86.6364ZM57.9267 85.1761C55.7319 84.207 54.0186 82.8763 52.7538 81.1944L51.1553 82.3965C52.648 84.3813 54.6469 85.9142 57.1188 87.0057L57.9267 85.1761ZM52.7593 81.2018C51.5199 79.5218 50.8381 77.57 50.726 75.314L48.7285 75.4133C48.8588 78.0361 49.6619 80.3721 51.1498 82.3891L52.7593 81.2018ZM49.7273 76.3636H55.4545V74.3636H49.7273V76.3636ZM54.4578 75.4442C54.5946 77.1368 55.1825 78.631 56.2318 79.8902L57.7682 78.6098C56.9993 77.6871 56.5569 76.5904 56.4513 75.2831L54.4578 75.4442ZM56.2362 79.8955C57.2631 81.1106 58.5932 82.0337 60.1951 82.6778L60.9412 80.8222C59.6037 80.2844 58.5551 79.5409 57.7638 78.6045L56.2362 79.8955ZM60.1951 82.6778C61.7977 83.3222 63.5552 83.6364 65.4545 83.6364V81.6364C63.7781 81.6364 62.278 81.3597 60.9412 80.8222L60.1951 82.6778ZM65.4545 83.6364C67.5711 83.6364 69.488 83.2673 71.1838 82.5025L70.3616 80.6793C68.9665 81.3085 67.338 81.6364 65.4545 81.6364V83.6364ZM71.1838 82.5025C72.8728 81.7408 74.2324 80.6633 75.2255 79.2593L73.5927 78.1044C72.8282 79.1852 71.7636 80.0471 70.3616 80.6793L71.1838 82.5025ZM75.2255 79.2593C76.2329 77.8351 76.7273 76.1904 76.7273 74.3636H74.7273C74.7273 75.8096 74.3429 77.0437 73.5927 78.1044L75.2255 79.2593ZM76.7273 74.3636C76.7273 72.4781 76.2573 70.7769 75.2925 69.2952L73.6165 70.3866C74.3487 71.511 74.7273 72.8249 74.7273 74.3636H76.7273ZM75.2954 69.2997C74.3283 67.7971 72.9257 66.6493 71.1404 65.8393L70.3141 67.6607C71.8016 68.3355 72.8839 69.2483 73.6137 70.3822L75.2954 69.2997ZM71.1404 65.8393C69.3402 65.0226 67.1905 64.6364 64.7273 64.6364V66.6364C66.9913 66.6364 68.8416 66.9926 70.3141 67.6607L71.1404 65.8393ZM64.7273 64.6364H61V66.6364H64.7273V64.6364ZM62 65.6364V60.6364H60V65.6364H62ZM61 61.6364H64.7273V59.6364H61V61.6364ZM64.7273 61.6364C66.6961 61.6364 68.4698 61.281 70.0224 60.5385L69.1595 58.7342C67.9241 59.325 66.4554 59.6364 64.7273 59.6364V61.6364ZM70.0186 60.5403C71.5816 59.8008 72.828 58.7429 73.7248 57.3632L72.0479 56.2732C71.369 57.3177 70.4184 58.1386 69.1632 58.7324L70.0186 60.5403ZM73.72 57.3705C74.6448 55.9746 75.0909 54.3528 75.0909 52.5455H73.0909C73.0909 54.0109 72.734 55.2376 72.0527 56.2659L73.72 57.3705ZM75.0909 52.5455C75.0909 50.8183 74.7074 49.264 73.9039 47.919L72.187 48.9447C72.7774 49.933 73.0909 51.1211 73.0909 52.5455H75.0909ZM73.9039 47.919C73.1056 46.5827 71.9772 45.5467 70.5466 44.8144L69.6352 46.5947C70.7501 47.1654 71.5913 47.9476 72.187 48.9447L73.9039 47.919ZM70.5509 44.8166C69.1244 44.0776 67.4755 43.7273 65.6364 43.7273V45.7273C67.2215 45.7273 68.5422 46.0284 69.6309 46.5925L70.5509 44.8166ZM65.6364 43.7273C63.9044 43.7273 62.2585 44.0466 60.7077 44.69L61.4741 46.5373C62.7719 45.9989 64.1562 45.7273 65.6364 45.7273V43.7273ZM60.7127 44.6879C59.1588 45.3228 57.866 46.2614 56.8586 47.5078L58.4141 48.7649C59.1946 47.7992 60.2048 47.0559 61.4692 46.5393L60.7127 44.6879ZM56.8629 47.5025C55.8198 48.7754 55.2682 50.3043 55.183 52.0419L57.1806 52.1399C57.247 50.7866 57.665 49.6791 58.4098 48.7702L56.8629 47.5025ZM56.1818 51.0909H50.7273V53.0909H56.1818V51.0909ZM51.7266 52.1281C51.8104 49.8789 52.483 47.9424 53.731 46.2829L52.1326 45.0808C50.6231 47.0879 49.826 49.4241 49.728 52.0537L51.7266 52.1281ZM53.7334 46.2797C55.0063 44.5732 56.6745 43.2363 58.7608 42.2712L57.9211 40.456C55.5528 41.5516 53.6149 43.0935 52.1302 45.0839L53.7334 46.2797ZM58.7584 42.2723C60.8588 41.3073 63.1769 40.8182 65.7273 40.8182V38.8182C62.914 38.8182 60.3078 39.3594 57.9234 40.455L58.7584 42.2723ZM65.7273 40.8182C68.4705 40.8182 70.7626 41.3734 72.6437 42.4384L73.6291 40.698C71.3889 39.4297 68.7417 38.8182 65.7273 38.8182V40.8182ZM72.6485 42.4411C74.5656 43.5124 76.0137 44.9127 77.0228 46.6407L78.7499 45.6321C77.5469 43.5722 75.8284 41.927 73.6242 40.6952L72.6485 42.4411ZM77.0228 46.6407C78.0394 48.3813 78.5455 50.2527 78.5455 52.2727H80.5455C80.5455 49.8988 79.9455 47.6793 78.7499 45.6321L77.0228 46.6407ZM78.5455 52.2727C78.5455 54.7092 77.9084 56.7267 76.6757 58.3794L78.2788 59.5752C79.8037 57.5308 80.5455 55.0786 80.5455 52.2727H78.5455ZM76.6725 58.3836C75.4458 60.0465 73.7762 61.2071 71.6189 61.8612L72.1993 63.7752C74.7389 63.0051 76.7815 61.605 78.282 59.5709L76.6725 58.3836ZM70.9091 62.8182V63.1818H72.9091V62.8182H70.9091ZM71.7463 64.1685C74.4827 64.6198 76.5465 65.7652 78.022 67.5657L79.5689 66.2979C77.7414 64.0681 75.2143 62.7135 72.0718 62.1952L71.7463 64.1685ZM78.0244 67.5686C79.5075 69.3646 80.2727 71.6073 80.2727 74.3636H82.2727C82.2727 71.2109 81.3864 68.499 79.5665 66.2951L78.0244 67.5686ZM80.2727 74.3636C80.2727 76.7002 79.6399 78.7746 78.3792 80.6171L80.0299 81.7465C81.5267 79.5587 82.2727 77.0877 82.2727 74.3636H80.2727ZM78.3783 80.6185C77.121 82.4625 75.3968 83.928 73.1757 85.0101L74.0516 86.8081C76.5578 85.5871 78.5608 83.9011 80.0308 81.7452L78.3783 80.6185ZM73.1757 85.0101C70.9672 86.086 68.4312 86.6364 65.5455 86.6364V88.6364C68.6901 88.6364 71.5328 88.0352 74.0516 86.8081L73.1757 85.0101Z" fill="#2F2F2F"/>
</svg>
