<svg width="120" height="120" viewBox="0 0 120 120" fill="none" xmlns="http://www.w3.org/2000/svg">
<rect x="0.5" y="0.5" width="119" height="119" stroke="#989898"/>
<path d="M45.8182 84H44.8182V85H45.8182V84ZM45.8182 79.9091L45.0799 79.2346L44.8182 79.5211V79.9091H45.8182ZM61.1818 63.0909L60.4442 62.4157L60.4435 62.4164L61.1818 63.0909ZM65.6364 57.9545L66.4164 58.5802L66.4196 58.5763L65.6364 57.9545ZM68.2273 53.8182L67.3126 53.414L67.3104 53.4191L68.2273 53.8182ZM67.9091 45.4773L67.0689 46.0197L67.0738 46.0271L67.9091 45.4773ZM64.7273 42.7045L65.1623 41.8041L65.1623 41.8041L64.7273 42.7045ZM55.5 42.8409L55.9831 43.7165L55.9865 43.7146L55.5 42.8409ZM52.4318 45.9091L51.5562 45.426L51.552 45.4338L52.4318 45.9091ZM51.3636 50.5455V51.5455H52.3636V50.5455H51.3636ZM46 50.5455H45V51.5455H46V50.5455ZM47.8864 43.3636L48.74 43.8846L48.74 43.8846L47.8864 43.3636ZM53.0227 38.5455L52.556 37.6611L52.5534 37.6624L53.0227 38.5455ZM67.6136 38.5455L68.0934 37.668L68.0934 37.668L67.6136 38.5455ZM72.5682 43.2045L71.7154 43.7268L72.5682 43.2045ZM73.4318 54.75L72.4969 54.3951L72.4951 54.3998L73.4318 54.75ZM70.25 60.1818L69.4529 59.578L69.4522 59.5789L70.25 60.1818ZM64 67.4545L64.7305 68.1375L64.7318 68.136L64 67.4545ZM53.5455 78.6364L52.815 77.9534L52.5455 78.2417V78.6364H53.5455ZM53.5455 79H52.5455V80H53.5455V79ZM75.1818 79H76.1818V78H75.1818V79ZM75.1818 84V85H76.1818V84H75.1818ZM46.8182 84V79.9091H44.8182V84H46.8182ZM46.5565 80.5835L61.9201 63.7654L60.4435 62.4164L45.0799 79.2346L46.5565 80.5835ZM61.9194 63.7661C63.7315 61.7866 65.2318 60.0572 66.4164 58.5802L64.8563 57.3289C63.7076 58.7609 62.2382 60.4558 60.4442 62.4157L61.9194 63.7661ZM66.4196 58.5763C67.6234 57.0598 68.5395 55.6064 69.1442 54.2173L67.3104 53.4191C66.7938 54.6057 65.9826 55.9099 64.8531 57.3328L66.4196 58.5763ZM69.142 54.2223C69.774 52.792 70.0909 51.2907 70.0909 49.7273H68.0909C68.0909 51.0123 67.8321 52.2383 67.3126 53.414L69.142 54.2223ZM70.0909 49.7273C70.0909 47.924 69.6544 46.31 68.7444 44.9275L67.0738 46.0271C67.7395 47.0385 68.0909 48.2578 68.0909 49.7273H70.0909ZM68.7492 44.9349C67.8717 43.5756 66.6673 42.5313 65.1623 41.8041L64.2922 43.605C65.4842 44.1809 66.401 44.985 67.069 46.0196L68.7492 44.9349ZM65.1623 41.8041C63.6623 41.0794 61.9956 40.7273 60.1818 40.7273V42.7273C61.7316 42.7273 63.0953 43.0266 64.2922 43.605L65.1623 41.8041ZM60.1818 40.7273C58.253 40.7273 56.5193 41.1288 55.0135 41.9672L55.9865 43.7146C57.1474 43.0682 58.5348 42.7273 60.1818 42.7273V40.7273ZM55.0169 41.9653C53.5335 42.7838 52.3747 43.9426 51.5562 45.426L53.3074 46.3922C53.9435 45.2392 54.8301 44.3526 55.9831 43.7165L55.0169 41.9653ZM51.552 45.4338C50.7477 46.9226 50.3636 48.6372 50.3636 50.5455H52.3636C52.3636 48.9083 52.6917 47.532 53.3116 46.3844L51.552 45.4338ZM51.3636 49.5455H46V51.5455H51.3636V49.5455ZM47 50.5455C47 47.9775 47.5901 45.7687 48.74 43.8846L47.0328 42.8427C45.6675 45.0798 45 47.6588 45 50.5455H47ZM48.74 43.8846C49.9026 41.9795 51.4809 40.4974 53.492 39.4285L52.5534 37.6624C50.2313 38.8966 48.3853 40.6265 47.0328 42.8427L48.74 43.8846ZM53.4895 39.4298C55.5135 38.3616 57.7977 37.8182 60.3636 37.8182V35.8182C57.5053 35.8182 54.8956 36.4263 52.556 37.6611L53.4895 39.4298ZM60.3636 37.8182C62.9464 37.8182 65.194 38.3622 67.1339 39.4229L68.0934 37.668C65.8212 36.4257 63.2354 35.8182 60.3636 35.8182V37.8182ZM67.1339 39.4229C69.0943 40.4947 70.614 41.9283 71.7154 43.7268L73.421 42.6823C72.1284 40.5717 70.3451 38.8992 68.0934 37.668L67.1339 39.4229ZM71.7154 43.7268C72.8117 45.517 73.3636 47.5091 73.3636 49.7273H75.3636C75.3636 47.1576 74.7186 44.8012 73.421 42.6823L71.7154 43.7268ZM73.3636 49.7273C73.3636 51.3154 73.0761 52.8695 72.4969 54.3951L74.3667 55.1049C75.03 53.3578 75.3636 51.5634 75.3636 49.7273H73.3636ZM72.4951 54.3998C71.9346 55.8994 70.9333 57.6238 69.4529 59.578L71.0471 60.7857C72.597 58.7398 73.717 56.843 74.3685 55.1002L72.4951 54.3998ZM69.4522 59.5789C67.981 61.5256 65.9231 63.922 63.2682 66.7731L64.7318 68.136C67.4103 65.2598 69.519 62.8077 71.0478 60.7847L69.4522 59.5789ZM63.2695 66.7716L52.815 77.9534L54.2759 79.3193L64.7305 68.1375L63.2695 66.7716ZM52.5455 78.6364V79H54.5455V78.6364H52.5455ZM53.5455 80H75.1818V78H53.5455V80ZM74.1818 79V84H76.1818V79H74.1818ZM75.1818 83H45.8182V85H75.1818V83Z" fill="#2F2F2F"/>
</svg>
