<svg width="134" height="41" viewBox="0 0 134 41" fill="none" xmlns="http://www.w3.org/2000/svg">
<path d="M7 21.28L15.32 21.52C16.4933 21.52 17.6267 21.1333 18.72 20.36L19.8 21.8C19.2667 22.4133 18.84 22.88 18.52 23.2C18.2 23.4933 17.72 23.7867 17.08 24.08C16.4667 24.3733 15.7733 24.52 15 24.52L7.52 24.2C4.18667 24.2 2.56 24.24 2.64 24.32C1.65333 24.2933 1.16 23.8533 1.16 23C1.24 22.4667 1.6 21.5867 2.24 20.36C2.88 19.1067 3.74667 16.8533 4.84 13.6C3.18667 13.6 1.70667 13.1067 0.4 12.12L1.24 10.64C2.38667 11.3867 3.78667 11.76 5.44 11.76C6.98667 7.97333 8.94667 5.13333 11.32 3.24C13.6933 1.34667 16.1733 0.4 18.76 0.4C19.9867 0.4 20.9733 0.719999 21.72 1.36C22.4667 1.97333 22.84 2.8 22.84 3.84C22.84 6.08 21.36 8.18667 18.4 10.16C15.4667 12.1067 12.12 13.2 8.36 13.44C7.13333 17.3333 5.76 19.9867 4.24 21.4C4.90667 21.32 5.82667 21.28 7 21.28ZM16.56 2.56C14.9067 2.56 13.3733 3.4 11.96 5.08C10.5467 6.76 9.53333 8.93333 8.92 11.6C11.5867 11.4133 13.92 10.6133 15.92 9.2C17.92 7.78667 18.92 6.30667 18.92 4.76C18.92 4.14666 18.6933 3.62667 18.24 3.2C17.7867 2.77333 17.2267 2.56 16.56 2.56ZM35.0422 13.12C35.7355 14.2667 36.0822 15.5333 36.0822 16.92C36.0822 19.08 35.3355 21.0133 33.8422 22.72C32.3489 24.4 30.5889 25.24 28.5622 25.24C27.0155 25.24 25.8022 24.8 24.9222 23.92C24.0689 23.0133 23.6422 21.7733 23.6422 20.2C23.6422 17.6667 24.6289 15.4 26.6022 13.4C28.5755 11.3733 30.7889 10.36 33.2422 10.36C33.6955 10.36 34.0155 10.3733 34.2022 10.4L34.3222 11.72C32.1889 11.72 30.4155 12.3333 29.0022 13.56C27.5889 14.7867 26.8822 16.36 26.8822 18.28C26.8822 19.4267 27.1622 20.36 27.7222 21.08C28.2822 21.7733 29.0955 22.12 30.1622 22.12C31.2555 22.12 32.1222 21.64 32.7622 20.68C33.4022 19.72 33.7222 18.6 33.7222 17.32C33.7222 16.0133 33.4689 14.8267 32.9622 13.76L35.0422 13.12ZM54.1244 23.56L54.1644 24.52C53.8977 24.68 52.6844 25.16 50.5244 25.96C49.671 31.0533 48.4177 34.7333 46.7644 37C45.111 39.2667 43.0844 40.4 40.6844 40.4C39.5644 40.4 38.671 40.04 38.0044 39.32C37.3377 38.6 37.0044 37.6667 37.0044 36.52C37.0044 34.2267 38.0577 32.08 40.1644 30.08C42.271 28.1067 45.0844 26.5467 48.6044 25.4C49.0044 23.6133 49.7244 21.0933 50.7644 17.84C48.9777 20.56 47.351 22.4 45.8844 23.36C44.4444 24.32 43.1377 24.8 41.9644 24.8C40.791 24.8 39.8977 24.48 39.2844 23.84C38.6977 23.2 38.4044 22.3467 38.4044 21.28C38.4044 19.52 39.1377 17.7333 40.6044 15.92C42.071 14.08 43.911 12.5867 46.1244 11.44C48.3644 10.2667 50.5244 9.68 52.6044 9.68L52.9244 11.08C49.9644 11.4 47.4177 12.44 45.2844 14.2C43.1777 15.96 42.1244 17.6533 42.1244 19.28C42.1244 19.9733 42.3377 20.5467 42.7644 21C43.191 21.4533 43.711 21.68 44.3244 21.68C45.231 21.68 46.6044 20.72 48.4444 18.8C50.2844 16.88 51.5777 15.24 52.3244 13.88L53.8044 14.72C52.3377 18.64 51.3244 21.9467 50.7644 24.64L54.1244 23.56ZM48.3644 26.6C46.0444 27.6667 44.1244 28.9467 42.6044 30.44C41.0844 31.9333 40.3244 33.2933 40.3244 34.52C40.3244 35.16 40.511 35.68 40.8844 36.08C41.2577 36.48 41.7244 36.68 42.2844 36.68C43.4044 36.68 44.511 35.8933 45.6044 34.32C46.6977 32.7467 47.6177 30.1733 48.3644 26.6ZM66.2531 13.12C66.9465 14.2667 67.2931 15.5333 67.2931 16.92C67.2931 19.08 66.5465 21.0133 65.0531 22.72C63.5598 24.4 61.7998 25.24 59.7731 25.24C58.2265 25.24 57.0131 24.8 56.1331 23.92C55.2798 23.0133 54.8531 21.7733 54.8531 20.2C54.8531 17.6667 55.8398 15.4 57.8131 13.4C59.7865 11.3733 61.9998 10.36 64.4531 10.36C64.9065 10.36 65.2265 10.3733 65.4131 10.4L65.5331 11.72C63.3998 11.72 61.6265 12.3333 60.2131 13.56C58.7998 14.7867 58.0931 16.36 58.0931 18.28C58.0931 19.4267 58.3731 20.36 58.9331 21.08C59.4931 21.7733 60.3065 22.12 61.3731 22.12C62.4665 22.12 63.3331 21.64 63.9731 20.68C64.6131 19.72 64.9331 18.6 64.9331 17.32C64.9331 16.0133 64.6798 14.8267 64.1731 13.76L66.2531 13.12ZM77.4553 20.52L78.3353 21.52C77.6686 22.56 76.8553 23.3733 75.8953 23.96C74.962 24.5467 74.0153 24.84 73.0553 24.84C72.0953 24.84 71.3353 24.5733 70.7753 24.04C70.2153 23.48 69.9353 22.72 69.9353 21.76C69.9353 19.52 70.7753 16.4267 72.4553 12.48C71.0953 12.6933 69.7353 13.0133 68.3753 13.44L68.0953 11.88L68.0553 11.84C69.3886 11.28 71.1353 10.8267 73.2953 10.48C73.5086 10.08 73.9886 9.10667 74.7353 7.56C76.2286 4.49333 77.2953 2.50667 77.9353 1.6L79.6553 2.28C79.3886 2.86667 78.922 3.85333 78.2553 5.24C77.5886 6.6 76.842 8.14667 76.0153 9.88C77.2153 9.8 78.162 9.76 78.8553 9.76C79.5486 9.76 80.082 9.86667 80.4553 10.08V11.8C80.082 11.72 79.5353 11.68 78.8153 11.68C78.122 11.68 76.8686 11.8 75.0553 12.04C73.482 15.56 72.6953 18.12 72.6953 19.72C72.6953 20.3333 72.882 20.84 73.2553 21.24C73.6553 21.64 74.1753 21.84 74.8153 21.84C75.482 21.84 76.362 21.4 77.4553 20.52ZM97.7384 22.48L97.8584 23.52C97.7518 23.6 96.5118 24.08 94.1384 24.96C93.8184 26.72 93.4051 28.4533 92.8984 30.16C92.4184 31.8933 91.9251 33.2 91.4184 34.08C90.9384 34.9867 90.3651 35.88 89.6984 36.76C88.3651 38.52 86.5651 39.4 84.2984 39.4C83.1784 39.4 82.2851 39.0533 81.6184 38.36C80.9518 37.6667 80.6184 36.72 80.6184 35.52C80.6184 30.9067 84.4851 27.2 92.2184 24.4L94.3784 16.8C92.0851 20.24 90.0184 22.36 88.1784 23.16C87.2718 23.5867 86.3118 23.8 85.2984 23.8C84.3118 23.8 83.5118 23.48 82.8984 22.84C82.3118 22.2 82.0184 21.2667 82.0184 20.04C82.0184 18.8133 82.4318 17.1067 83.2584 14.92C84.1118 12.7067 85.0584 10.8533 86.0984 9.36L88.0584 10.2C87.9784 10.28 87.6051 10.9867 86.9384 12.32C85.7651 14.7467 85.1784 16.5467 85.1784 17.72C85.1784 18.8933 85.4051 19.68 85.8584 20.08C86.3118 20.48 86.9784 20.68 87.8584 20.68C88.7384 20.68 89.7251 20.16 90.8184 19.12C91.9384 18.0533 93.6584 15.96 95.9784 12.84L97.4184 13.68C97.2051 14.56 96.7251 16.16 95.9784 18.48C95.2584 20.7733 94.7651 22.5333 94.4984 23.76L97.7384 22.48ZM91.9784 25.6C90.2984 26.3733 88.8184 27.2533 87.5384 28.24C85.1384 30.0533 83.9384 31.8133 83.9384 33.52C83.9384 34.16 84.1251 34.68 84.4984 35.08C84.8718 35.48 85.3384 35.68 85.8984 35.68C88.5651 35.68 90.5918 32.32 91.9784 25.6ZM105.305 17.64C107.332 14.6 109.092 12.5333 110.585 11.44C112.079 10.32 113.385 9.76 114.505 9.76C115.625 9.76 116.492 10.1067 117.105 10.8C117.719 11.4667 118.025 12.32 118.025 13.36C118.025 16.24 116.985 18.9067 114.905 21.36C112.852 23.7867 110.532 25 107.945 25C106.799 25 105.892 24.8 105.225 24.4L106.185 22.68C107.572 22.8667 108.439 22.96 108.785 22.96C110.225 22.96 111.572 22.12 112.825 20.44C114.079 18.76 114.705 17.04 114.705 15.28C114.705 14.6133 114.505 14.0667 114.105 13.64C113.732 13.1867 113.239 12.96 112.625 12.96C111.159 12.96 109.492 14.2533 107.625 16.84C105.785 19.4267 104.052 22.6267 102.425 26.44C100.825 30.28 99.4253 34.36 98.2253 38.68L95.8253 37.84C95.8786 37.68 96.3853 36.2933 97.3453 33.68C98.2786 31.0933 99.1986 28.52 100.105 25.96C102.612 18.92 103.865 15.0667 103.865 14.4C103.865 12.6933 103.519 11.1467 102.825 9.76L104.825 8.76C105.652 9.90667 106.065 11.12 106.065 12.4C106.065 13.6533 105.812 15.4 105.305 17.64ZM130.35 20.28L131.27 21C130.443 22.1467 129.31 23.1067 127.87 23.88C126.43 24.6267 125.03 25 123.67 25C122.31 25 121.217 24.6 120.39 23.8C119.563 23 119.15 21.9467 119.15 20.64C119.15 18.1867 120.443 15.7733 123.03 13.4C125.643 11.0267 128.283 9.84 130.95 9.84C132.71 9.84 133.59 10.5333 133.59 11.92C133.59 13.36 132.657 14.8133 130.79 16.28C128.95 17.7467 126.35 19.08 122.99 20.28C123.23 20.8933 123.603 21.3733 124.11 21.72C124.617 22.0667 125.137 22.24 125.67 22.24C126.817 22.24 128.377 21.5867 130.35 20.28ZM122.79 19.08C124.95 18.3333 126.803 17.4 128.35 16.28C129.897 15.16 130.67 14.1333 130.67 13.2C130.67 12.8533 130.537 12.5467 130.27 12.28C130.003 12.0133 129.697 11.88 129.35 11.88C128.097 11.88 126.737 12.6667 125.27 14.24C123.83 15.7867 123.003 17.4 122.79 19.08Z" fill="white"/>
</svg>
