<svg width="266" height="432" viewBox="0 0 266 432" fill="none" xmlns="http://www.w3.org/2000/svg">
<g clip-path="url(#clip0_102_2)">
<path fill-rule="evenodd" clip-rule="evenodd" d="M159.981 79L191.962 91.9814L159.981 104.963L128 91.9814L159.981 79Z" fill="black"/>
</g>
<g clip-path="url(#clip1_102_2)">
<path fill-rule="evenodd" clip-rule="evenodd" d="M159.981 214L191.962 226.981L159.981 239.963L128 226.981L159.981 214Z" fill="black"/>
</g>
<g clip-path="url(#clip2_102_2)">
<path fill-rule="evenodd" clip-rule="evenodd" d="M233.981 214L265.962 226.981L233.981 239.963L202 226.981L233.981 214Z" fill="black"/>
</g>
<g clip-path="url(#clip3_102_2)">
<path fill-rule="evenodd" clip-rule="evenodd" d="M95.9811 13L127.962 25.9814L95.9811 38.9627L64 25.9814L95.9811 13Z" fill="black"/>
</g>
<g clip-path="url(#clip4_102_2)">
<path fill-rule="evenodd" clip-rule="evenodd" d="M159.981 124L191.962 136.981L159.981 149.963L128 136.981L159.981 124Z" fill="black"/>
</g>
<g clip-path="url(#clip5_102_2)">
<path fill-rule="evenodd" clip-rule="evenodd" d="M233.981 124L265.962 136.981L233.981 149.963L202 136.981L233.981 124Z" fill="black"/>
</g>
<g clip-path="url(#clip6_102_2)">
<path fill-rule="evenodd" clip-rule="evenodd" d="M159.981 259L191.962 271.981L159.981 284.963L128 271.981L159.981 259Z" fill="black"/>
</g>
<g clip-path="url(#clip7_102_2)">
<path fill-rule="evenodd" clip-rule="evenodd" d="M233.981 259L265.962 271.981L233.981 284.963L202 271.981L233.981 259Z" fill="black"/>
</g>
<g clip-path="url(#clip8_102_2)">
<path fill-rule="evenodd" clip-rule="evenodd" d="M158.981 169L190.962 181.981L158.981 194.963L127 181.981L158.981 169Z" fill="black"/>
</g>
<g clip-path="url(#clip9_102_2)">
<path fill-rule="evenodd" clip-rule="evenodd" d="M232.981 169L264.962 181.981L232.981 194.963L201 181.981L232.981 169Z" fill="black"/>
</g>
<g clip-path="url(#clip10_102_2)">
<path fill-rule="evenodd" clip-rule="evenodd" d="M158.981 304L190.962 316.981L158.981 329.963L127 316.981L158.981 304Z" fill="black"/>
</g>
<g clip-path="url(#clip11_102_2)">
<path fill-rule="evenodd" clip-rule="evenodd" d="M232.981 304L264.962 316.981L232.981 329.963L201 316.981L232.981 304Z" fill="black"/>
</g>
<g clip-path="url(#clip12_102_2)">
<path fill-rule="evenodd" clip-rule="evenodd" d="M31.9811 399.638L63.9623 412.619L31.9811 425.601L-4.36566e-05 412.619L31.9811 399.638Z" fill="black"/>
</g>
<g clip-path="url(#clip13_102_2)">
<path fill-rule="evenodd" clip-rule="evenodd" d="M95.9811 387L127.962 399.981L95.9811 412.963L64 399.981L95.9811 387Z" fill="black"/>
</g>
<g clip-path="url(#clip14_102_2)">
<path fill-rule="evenodd" clip-rule="evenodd" d="M31.9811 -8.09417e-06L63.9623 12.9814L31.9811 25.9627L-1.31391e-05 12.9814L31.9811 -8.09417e-06Z" fill="black"/>
</g>
<g clip-path="url(#clip15_102_2)">
<path fill-rule="evenodd" clip-rule="evenodd" d="M158.981 349L190.962 361.981L158.981 374.963L127 361.981L158.981 349Z" fill="black"/>
</g>
<defs>
<clipPath id="clip0_102_2">
<rect width="64" height="26" fill="white" transform="translate(128 79)"/>
</clipPath>
<clipPath id="clip1_102_2">
<rect width="64" height="26" fill="white" transform="translate(128 214)"/>
</clipPath>
<clipPath id="clip2_102_2">
<rect width="64" height="26" fill="white" transform="translate(202 214)"/>
</clipPath>
<clipPath id="clip3_102_2">
<rect width="64" height="26" fill="white" transform="translate(64 13)"/>
</clipPath>
<clipPath id="clip4_102_2">
<rect width="64" height="26" fill="white" transform="translate(128 124)"/>
</clipPath>
<clipPath id="clip5_102_2">
<rect width="64" height="26" fill="white" transform="translate(202 124)"/>
</clipPath>
<clipPath id="clip6_102_2">
<rect width="64" height="26" fill="white" transform="translate(128 259)"/>
</clipPath>
<clipPath id="clip7_102_2">
<rect width="64" height="26" fill="white" transform="translate(202 259)"/>
</clipPath>
<clipPath id="clip8_102_2">
<rect width="64" height="26" fill="white" transform="translate(127 169)"/>
</clipPath>
<clipPath id="clip9_102_2">
<rect width="64" height="26" fill="white" transform="translate(201 169)"/>
</clipPath>
<clipPath id="clip10_102_2">
<rect width="64" height="26" fill="white" transform="translate(127 304)"/>
</clipPath>
<clipPath id="clip11_102_2">
<rect width="64" height="26" fill="white" transform="translate(201 304)"/>
</clipPath>
<clipPath id="clip12_102_2">
<rect width="64" height="26" fill="white" transform="translate(0 406)"/>
</clipPath>
<clipPath id="clip13_102_2">
<rect width="64" height="26" fill="white" transform="translate(64 387)"/>
</clipPath>
<clipPath id="clip14_102_2">
<rect width="64" height="26" fill="white"/>
</clipPath>
<clipPath id="clip15_102_2">
<rect width="64" height="26" fill="white" transform="translate(127 349)"/>
</clipPath>
</defs>
</svg>
